<svg width="800" height="1000" viewBox="0 0 800 1000" fill="none" xmlns="http://www.w3.org/2000/svg">
  <rect width="800" height="1000" fill="#0C0C0C"/>
  <circle cx="400" cy="260" r="160" fill="url(#paint0_linear_1_2)"/>
  <path d="M260 820C260 690.512 355.512 600 485 600H515C644.488 600 740 690.512 740 820V880H260V820Z" fill="url(#paint1_linear_1_2)"/>
  <circle cx="400" cy="270" r="118" fill="#F5F7F9" fill-opacity="0.85"/>
  <path d="M334 240L396 306L466 228L520 300V356C520 390.242 492.242 418 458 418H342C307.758 418 280 390.242 280 356V300L334 240Z" fill="#2D3748" fill-opacity="0.8"/>
  <path d="M318 330C318 277.4 360.4 235 413 235H444C496.6 235 539 277.4 539 330V336H318V330Z" fill="#0C0C0C" fill-opacity="0.78"/>
  <text x="400" y="920" text-anchor="middle" fill="#E9EEF3" font-family="Arial, sans-serif" font-size="72" font-weight="700" letter-spacing="8">VY</text>
  <defs>
    <linearGradient id="paint0_linear_1_2" x1="166" y1="120" x2="623" y2="404" gradientUnits="userSpaceOnUse">
      <stop stop-color="#B600A8"/>
      <stop offset="0.45" stop-color="#7621B0"/>
      <stop offset="1" stop-color="#F97316"/>
    </linearGradient>
    <linearGradient id="paint1_linear_1_2" x1="260" y1="615" x2="740" y2="880" gradientUnits="userSpaceOnUse">
      <stop stop-color="#111827"/>
      <stop offset="1" stop-color="#374151"/>
    </linearGradient>
  </defs>
</svg>
